<svg width="14" height="14" viewBox="0 0 14 14" fill="none" xmlns="http://www.w3.org/2000/svg">
<path fill-rule="evenodd" clip-rule="evenodd" d="M2 0C0.895432 0 0 0.895416 0 2V12C0 13.1046 0.895432 14 2 14H12C13.1046 14 14 13.1046 14 12V2C14 0.895416 13.1046 0 12 0H2ZM2 1C1.44771 1 1 1.44772 1 2V12C1 12.5523 1.44771 13 2 13H12C12.5523 13 13 12.5523 13 12V2C13 1.44772 12.5523 1 12 1H2Z" fill="#000000"/>
<path d="M2 11.5C2 10.6716 2.67157 10 3.5 10H10.5C11.3284 10 12 10.6716 12 11.5V12H2V11.5Z" fill="#000000"/>
</svg>
