<svg width="13" height="14" viewBox="0 0 13 14" fill="none" xmlns="http://www.w3.org/2000/svg">
<path fill-rule="evenodd" clip-rule="evenodd" d="M2 0C0.895431 0 0 0.89543 0 2V12C0 13.1046 0.89543 14 2 14H11C12.1046 14 13 13.1046 13 12V5C13 2.23858 10.7614 0 8 0H2ZM3 1C1.89543 1 1 1.89543 1 3V11C1 12.1046 1.89543 13 3 13H10C11.1046 13 12 12.1046 12 11V6C12 3.23858 9.76142 1 7 1H3Z" fill="#000000"/>
<path d="M3 6.5C3 6.22386 3.22386 6 3.5 6H6.5C6.77614 6 7 6.22386 7 6.5V7C7 7.27614 6.77614 7.5 6.5 7.5H3.5C3.22386 7.5 3 7.27614 3 7V6.5Z" fill="#000000"/>
<path d="M3 9.5C3 9.22386 3.22386 9 3.5 9H8.5C8.77614 9 9 9.22386 9 9.5V10C9 10.2761 8.77614 10.5 8.5 10.5H3.5C3.22386 10.5 3 10.2761 3 10V9.5Z" fill="#000000"/>
</svg>
