<svg width="18" height="12" viewBox="0 0 18 12" fill="none" xmlns="http://www.w3.org/2000/svg">
<path d="M4 0H14V6H4V0Z" fill="#949494"/>
<path d="M14 0L17.0311 6H10.9689L14 0Z" fill="#949494"/>
<path d="M4 0L7.03109 6H0.96891L4 0Z" fill="#949494"/>
<path d="M0.999999 6H17V10C17 11.1046 16.1046 12 15 12H3C1.89543 12 0.999999 11.1046 0.999999 10V6Z" fill="#696969"/>
<path d="M15 9C15 9.82843 14.3284 10.5 13.5 10.5C12.6716 10.5 12 9.82843 12 9C12 8.17157 12.6716 7.5 13.5 7.5C14.3284 7.5 15 8.17157 15 9Z" fill="#0EC5FF"/>
</svg>
