<svg width="14" height="14" viewBox="0 0 14 14" fill="none" xmlns="http://www.w3.org/2000/svg">
<path fill-rule="evenodd" clip-rule="evenodd" d="M0 1C0 0.447715 0.447715 0 1 0H5.5C6.05228 0 6.5 0.447715 6.5 1V5.5C6.5 6.05228 6.05228 6.5 5.5 6.5H1C0.447715 6.5 0 6.05228 0 5.5V1ZM1 2C1 1.44772 1.44772 1 2 1H4.5C5.05228 1 5.5 1.44772 5.5 2V4.5C5.5 5.05228 5.05228 5.5 4.5 5.5H2C1.44772 5.5 1 5.05228 1 4.5V2ZM7.5 1C7.5 0.447715 7.94772 0 8.5 0H13C13.5523 0 14 0.447715 14 1V5.5C14 6.05228 13.5523 6.5 13 6.5H8.5C7.94772 6.5 7.5 6.05228 7.5 5.5V1ZM8.5 2C8.5 1.44772 8.94772 1 9.5 1H12C12.5523 1 13 1.44772 13 2V4.5C13 5.05228 12.5523 5.5 12 5.5H9.5C8.94771 5.5 8.5 5.05228 8.5 4.5V2ZM1 7.5C0.447715 7.5 0 7.94772 0 8.5V13C0 13.5523 0.447715 14 1 14H5.5C6.05228 14 6.5 13.5523 6.5 13V8.5C6.5 7.94772 6.05228 7.5 5.5 7.5H1ZM2 8.5C1.44772 8.5 1 8.94771 1 9.5V12C1 12.5523 1.44772 13 2 13H4.5C5.05228 13 5.5 12.5523 5.5 12V9.5C5.5 8.94772 5.05228 8.5 4.5 8.5H2ZM7.5 8.5C7.5 7.94772 7.94772 7.5 8.5 7.5H13C13.5523 7.5 14 7.94772 14 8.5V13C14 13.5523 13.5523 14 13 14H8.5C7.94772 14 7.5 13.5523 7.5 13V8.5ZM8.5 9.5C8.5 8.94771 8.94772 8.5 9.5 8.5H12C12.5523 8.5 13 8.94772 13 9.5V12C13 12.5523 12.5523 13 12 13H9.5C8.94771 13 8.5 12.5523 8.5 12V9.5Z" fill="black"/>
</svg>
