<svg width="14" height="14" viewBox="0 0 14 14" fill="none" xmlns="http://www.w3.org/2000/svg">
<path fill-rule="evenodd" clip-rule="evenodd" d="M0 1C0 0.447715 0.447715 0 1 0H13C13.5523 0 14 0.447715 14 1C14 1.55228 13.5523 2 13 2H1C0.447716 2 0 1.55228 0 1ZM0 13C0 12.4477 0.447715 12 1 12H13C13.5523 12 14 12.4477 14 13C14 13.5523 13.5523 14 13 14H1C0.447716 14 0 13.5523 0 13ZM1 6C0.447715 6 0 6.44772 0 7C0 7.55228 0.447716 8 1 8H13C13.5523 8 14 7.55228 14 7C14 6.44772 13.5523 6 13 6H1Z" fill="black"/>
</svg>
