<svg width="14" height="14" viewBox="0 0 14 14" fill="none" xmlns="http://www.w3.org/2000/svg">
<path fill-rule="evenodd" clip-rule="evenodd" d="M7 14C10.866 14 14 10.866 14 7C14 3.134 10.866 0 7 0C3.134 0 0 3.134 0 7C0 10.866 3.134 14 7 14ZM7 13C10.3137 13 13 10.3137 13 7C13 3.68628 10.3137 1 7 1C3.68629 1 1 3.68628 1 7C1 10.3137 3.68629 13 7 13Z" fill="#000000"/>
<path fill-rule="evenodd" clip-rule="evenodd" d="M7 10C8.65686 10 10 8.65686 10 7C10 5.34314 8.65686 4 7 4C5.34314 4 4 5.34314 4 7C4 8.65686 5.34314 10 7 10ZM7 8.5C7.82843 8.5 8.5 7.82843 8.5 7C8.5 6.17157 7.82843 5.5 7 5.5C6.17157 5.5 5.5 6.17157 5.5 7C5.5 7.82843 6.17157 8.5 7 8.5Z" fill="#000000"/>
</svg>
