<svg width="14" height="16" viewBox="0 0 14 16" fill="none" xmlns="http://www.w3.org/2000/svg">
<path fill-rule="evenodd" clip-rule="evenodd" d="M10.7747 12.896C9.68557 13.5948 8.3901 14 7 14C3.13403 14 0 10.866 0 7C0 3.13401 3.13403 0 7 0C10.866 0 14 3.13401 14 7C14 8.93299 13.2165 10.683 11.9497 11.9497L14 14L12.9393 15.0607L10.7747 12.896ZM12.5 7C12.5 10.0376 10.0375 12.5 7 12.5C3.96246 12.5 1.5 10.0376 1.5 7C1.5 3.96243 3.96246 1.5 7 1.5C10.0375 1.5 12.5 3.96243 12.5 7Z" fill="black"/>
</svg>
