<svg width="16" height="16" viewBox="0 0 16 16" fill="none" xmlns="http://www.w3.org/2000/svg">
<path d="M3 5H1.5V14C1.5 15.1046 2.39543 16 3.5 16H12.5C13.6046 16 14.5 15.1046 14.5 14V5H13V12.5C13 13.6046 12.1046 14.5 11 14.5H5C3.89543 14.5 3 13.6046 3 12.5V5Z" fill="black"/>
<path d="M5 7H6.5V12H5V7Z" fill="black"/>
<path d="M9.5 7H11V12H9.5V7Z" fill="black"/>
<path d="M0.5 3H15.5V5H0.5V3Z" fill="black"/>
<path d="M7 0C5.34315 0 4 1.34315 4 3V5H6V4C6 2.89543 6.89543 2 8 2C9.10457 2 10 2.89543 10 4V5H12V3C12 1.34315 10.6569 0 9 0H7Z" fill="black"/>
</svg>
